<?xml version="1.0" encoding="utf-8" standalone="no"?>
<!DOCTYPE svg PUBLIC "-//W3C//DTD SVG 1.1//EN"
  "http://www.w3.org/Graphics/SVG/1.1/DTD/svg11.dtd">
<svg xmlns:xlink="http://www.w3.org/1999/xlink" width="640.503906pt" height="424.801719pt" viewBox="0 0 640.503906 424.801719" xmlns="http://www.w3.org/2000/svg" version="1.1">
 <metadata>
  <rdf:RDF xmlns:dc="http://purl.org/dc/elements/1.1/" xmlns:cc="http://creativecommons.org/ns#" xmlns:rdf="http://www.w3.org/1999/02/22-rdf-syntax-ns#">
   <cc:Work>
    <dc:type rdf:resource="http://purl.org/dc/dcmitype/StillImage"/>
    <dc:date>2026-07-18T13:00:43.126456</dc:date>
    <dc:format>image/svg+xml</dc:format>
    <dc:creator>
     <cc:Agent>
      <dc:title>Matplotlib v3.11.0, https://matplotlib.org/</dc:title>
     </cc:Agent>
    </dc:creator>
   </cc:Work>
  </rdf:RDF>
 </metadata>
 <defs>
  <style type="text/css">*{stroke-linejoin: round; stroke-linecap: butt}</style>
 </defs>
 <g id="figure_1">
  <g id="patch_1">
   <path d="M 0 424.801719
L 640.503906 424.801719
L 640.503906 0
L 0 0
z
" style="fill: #ffffff"/>
  </g>
  <g id="axes_1">
   <g id="patch_2">
    <path d="M 44.103906 386.600938
L 633.303906 386.600938
L 633.303906 22.318125
L 44.103906 22.318125
z
" style="fill: #ffffff"/>
   </g>
   <g id="PathCollection_1">
    <path d="M 71.46195 372.278696
C 72.054962 372.278696 72.623766 372.04309 73.043089 371.623767
C 73.462412 371.204444 73.698018 370.63564 73.698018 370.042628
C 73.698018 369.449616 73.462412 368.880812 73.043089 368.461489
C 72.623766 368.042166 72.054962 367.80656 71.46195 367.80656
C 70.868938 367.80656 70.300134 368.042166 69.880811 368.461489
C 69.461488 368.880812 69.225882 369.449616 69.225882 370.042628
C 69.225882 370.63564 69.461488 371.204444 69.880811 371.623767
C 70.300134 372.04309 70.868938 372.278696 71.46195 372.278696
z
" clip-path="url(#p4dcdfb41a2)" style="fill: #1f77b4; fill-opacity: 0.65; stroke: #1f77b4; stroke-opacity: 0.65"/>
    <path d="M 70.885724 213.838477
C 71.858803 213.838477 72.792159 213.451869 73.480229 212.763798
C 74.1683 212.075727 74.554909 211.142372 74.554909 210.169293
C 74.554909 209.196214 74.1683 208.262859 73.480229 207.574788
C 72.792159 206.886717 71.858803 206.500109 70.885724 206.500109
C 69.912645 206.500109 68.97929 206.886717 68.291219 207.574788
C 67.603149 208.262859 67.21654 209.196214 67.21654 210.169293
C 67.21654 211.142372 67.603149 212.075727 68.291219 212.763798
C 68.97929 213.451869 69.912645 213.838477 70.885724 213.838477
z
" clip-path="url(#p4dcdfb41a2)" style="fill: #1f77b4; fill-opacity: 0.65; stroke: #1f77b4; stroke-opacity: 0.65"/>
    <path d="M 95.104549 372.278696
C 95.697561 372.278696 96.266365 372.04309 96.685688 371.623767
C 97.10501 371.204444 97.340617 370.63564 97.340617 370.042628
C 97.340617 369.449616 97.10501 368.880812 96.685688 368.461489
C 96.266365 368.042166 95.697561 367.80656 95.104549 367.80656
C 94.511537 367.80656 93.942733 368.042166 93.52341 368.461489
C 93.104087 368.880812 92.868481 369.449616 92.868481 370.042628
C 92.868481 370.63564 93.104087 371.204444 93.52341 371.623767
C 93.942733 372.04309 94.511537 372.278696 95.104549 372.278696
z
" clip-path="url(#p4dcdfb41a2)" style="fill: #1f77b4; fill-opacity: 0.65; stroke: #1f77b4; stroke-opacity: 0.65"/>
    <path d="M 94.570662 233.905329
C 95.446123 233.905329 96.285846 233.557504 96.904891 232.938459
C 97.523935 232.319415 97.87176 231.479692 97.87176 230.604231
C 97.87176 229.728769 97.523935 228.889047 96.904891 228.270002
C 96.285846 227.650957 95.446123 227.303133 94.570662 227.303133
C 93.695201 227.303133 92.855478 227.650957 92.236433 228.270002
C 91.617389 228.889047 91.269564 229.728769 91.269564 230.604231
C 91.269564 231.479692 91.617389 232.319415 92.236433 232.938459
C 92.855478 233.557504 93.695201 233.905329 94.570662 233.905329
z
" clip-path="url(#p4dcdfb41a2)" style="fill: #1f77b4; fill-opacity: 0.65; stroke: #1f77b4; stroke-opacity: 0.65"/>
    <path d="M 93.992309 180.274141
C 95.149501 180.274141 96.259454 179.814384 97.077712 178.996125
C 97.895971 178.177867 98.355729 177.067914 98.355729 175.910721
C 98.355729 174.753529 97.895971 173.643576 97.077712 172.825318
C 96.259454 172.007059 95.149501 171.547302 93.992309 171.547302
C 92.835116 171.547302 91.725164 172.007059 90.906905 172.825318
C 90.088646 173.643576 89.628889 174.753529 89.628889 175.910721
C 89.628889 177.067914 90.088646 178.177867 90.906905 178.996125
C 91.725164 179.814384 92.835116 180.274141 93.992309 180.274141
z
" clip-path="url(#p4dcdfb41a2)" style="fill: #1f77b4; fill-opacity: 0.65; stroke: #1f77b4; stroke-opacity: 0.65"/>
    <path d="M 118.213754 207.271238
C 118.959427 207.271238 119.67466 206.974979 120.201931 206.447708
C 120.729202 205.920437 121.025461 205.205205 121.025461 204.459531
C 121.025461 203.713858 120.729202 202.998625 120.201931 202.471354
C 119.67466 201.944084 118.959427 201.647825 118.213754 201.647825
C 117.468081 201.647825 116.752848 201.944084 116.225577 202.471354
C 115.698307 202.998625 115.402047 203.713858 115.402047 204.459531
C 115.402047 205.205205 115.698307 205.920437 116.225577 206.447708
C 116.752848 206.974979 117.468081 207.271238 118.213754 207.271238
z
" clip-path="url(#p4dcdfb41a2)" style="fill: #1f77b4; fill-opacity: 0.65; stroke: #1f77b4; stroke-opacity: 0.65"/>
    <path d="M 117.677884 271.108327
C 118.763938 271.108327 119.805657 270.676833 120.573614 269.908876
C 121.341571 269.140919 121.773065 268.0992 121.773065 267.013146
C 121.773065 265.927091 121.341571 264.885372 120.573614 264.117415
C 119.805657 263.349458 118.763938 262.917964 117.677884 262.917964
C 116.591829 262.917964 115.55011 263.349458 114.782153 264.117415
C 114.014196 264.885372 113.582702 265.927091 113.582702 267.013146
C 113.582702 268.0992 114.014196 269.140919 114.782153 269.908876
C 115.55011 270.676833 116.591829 271.108327 117.677884 271.108327
z
" clip-path="url(#p4dcdfb41a2)" style="fill: #1f77b4; fill-opacity: 0.65; stroke: #1f77b4; stroke-opacity: 0.65"/>
    <path d="M 117.097392 193.104662
C 118.228796 193.104662 119.314012 192.655151 120.114036 191.855128
C 120.914059 191.055105 121.36357 189.969888 121.36357 188.838484
C 121.36357 187.707081 120.914059 186.621864 120.114036 185.821841
C 119.314012 185.021818 118.228796 184.572306 117.097392 184.572306
C 115.965989 184.572306 114.880772 185.021818 114.080749 185.821841
C 113.280726 186.621864 112.831214 187.707081 112.831214 188.838484
C 112.831214 189.969888 113.280726 191.055105 114.080749 191.855128
C 114.880772 192.655151 115.965989 193.104662 117.097392 193.104662
z
" clip-path="url(#p4dcdfb41a2)" style="fill: #1f77b4; fill-opacity: 0.65; stroke: #1f77b4; stroke-opacity: 0.65"/>
    <path d="M 141.814631 372.406982
C 142.441665 372.406982 143.043101 372.157859 143.486481 371.714479
C 143.929861 371.271099 144.178985 370.669662 144.178985 370.042628
C 144.178985 369.415594 143.929861 368.814157 143.486481 368.370777
C 143.043101 367.927397 142.441665 367.678274 141.814631 367.678274
C 141.187597 367.678274 140.58616 367.927397 140.14278 368.370777
C 139.6994 368.814157 139.450277 369.415594 139.450277 370.042628
C 139.450277 370.669662 139.6994 371.271099 140.14278 371.714479
C 140.58616 372.157859 141.187597 372.406982 141.814631 372.406982
z
" clip-path="url(#p4dcdfb41a2)" style="fill: #1f77b4; fill-opacity: 0.65; stroke: #1f77b4; stroke-opacity: 0.65"/>
    <path d="M 141.321582 206.695599
C 141.914594 206.695599 142.483398 206.459993 142.902721 206.04067
C 143.322044 205.621347 143.55765 205.052543 143.55765 204.459531
C 143.55765 203.866519 143.322044 203.297715 142.902721 202.878392
C 142.483398 202.45907 141.914594 202.223463 141.321582 202.223463
C 140.72857 202.223463 140.159766 202.45907 139.740443 202.878392
C 139.32112 203.297715 139.085514 203.866519 139.085514 204.459531
C 139.085514 205.052543 139.32112 205.621347 139.740443 206.04067
C 140.159766 206.459993 140.72857 206.695599 141.321582 206.695599
z
" clip-path="url(#p4dcdfb41a2)" style="fill: #1f77b4; fill-opacity: 0.65; stroke: #1f77b4; stroke-opacity: 0.65"/>
    <path d="M 164.923014 41.112503
C 165.516026 41.112503 166.08483 40.876896 166.504153 40.457573
C 166.923476 40.038251 167.159082 39.469447 167.159082 38.876435
C 167.159082 38.283422 166.923476 37.714619 166.504153 37.295296
C 166.08483 36.875973 165.516026 36.640367 164.923014 36.640367
C 164.330002 36.640367 163.761198 36.875973 163.341875 37.295296
C 162.922552 37.714619 162.686946 38.283422 162.686946 38.876435
C 162.686946 39.469447 162.922552 40.038251 163.341875 40.457573
C 163.761198 40.876896 164.330002 41.112503 164.923014 41.112503
z
" clip-path="url(#p4dcdfb41a2)" style="fill: #1f77b4; fill-opacity: 0.65; stroke: #1f77b4; stroke-opacity: 0.65"/>
    <path d="M 164.428125 372.278696
C 165.021137 372.278696 165.589941 372.04309 166.009264 371.623767
C 166.428587 371.204444 166.664193 370.63564 166.664193 370.042628
C 166.664193 369.449616 166.428587 368.880812 166.009264 368.461489
C 165.589941 368.042166 165.021137 367.80656 164.428125 367.80656
C 163.835113 367.80656 163.266309 368.042166 162.846986 368.461489
C 162.427663 368.880812 162.192057 369.449616 162.192057 370.042628
C 162.192057 370.63564 162.427663 371.204444 162.846986 371.623767
C 163.266309 372.04309 163.835113 372.278696 164.428125 372.278696
z
" clip-path="url(#p4dcdfb41a2)" style="fill: #1f77b4; fill-opacity: 0.65; stroke: #1f77b4; stroke-opacity: 0.65"/>
    <path d="M 188.030215 206.695599
C 188.623227 206.695599 189.192031 206.459993 189.611354 206.04067
C 190.030677 205.621347 190.266283 205.052543 190.266283 204.459531
C 190.266283 203.866519 190.030677 203.297715 189.611354 202.878392
C 189.192031 202.45907 188.623227 202.223463 188.030215 202.223463
C 187.437203 202.223463 186.868399 202.45907 186.449076 202.878392
C 186.029753 203.297715 185.794147 203.866519 185.794147 204.459531
C 185.794147 205.052543 186.029753 205.621347 186.449076 206.04067
C 186.868399 206.459993 187.437203 206.695599 188.030215 206.695599
z
" clip-path="url(#p4dcdfb41a2)" style="fill: #1f77b4; fill-opacity: 0.65; stroke: #1f77b4; stroke-opacity: 0.65"/>
    <path d="M 187.533466 306.173743
C 188.1605 306.173743 188.761937 305.92462 189.205317 305.48124
C 189.648697 305.03786 189.89782 304.436423 189.89782 303.809389
C 189.89782 303.182355 189.648697 302.580918 189.205317 302.137538
C 188.761937 301.694158 188.1605 301.445035 187.533466 301.445035
C 186.906432 301.445035 186.304995 301.694158 185.861615 302.137538
C 185.418235 302.580918 185.169112 303.182355 185.169112 303.809389
C 185.169112 304.436423 185.418235 305.03786 185.861615 305.48124
C 186.304995 305.92462 186.906432 306.173743 187.533466 306.173743
z
" clip-path="url(#p4dcdfb41a2)" style="fill: #1f77b4; fill-opacity: 0.65; stroke: #1f77b4; stroke-opacity: 0.65"/>
    <path d="M 234.696447 372.278696
C 235.289459 372.278696 235.858263 372.04309 236.277586 371.623767
C 236.696909 371.204444 236.932515 370.63564 236.932515 370.042628
C 236.932515 369.449616 236.696909 368.880812 236.277586 368.461489
C 235.858263 368.042166 235.289459 367.80656 234.696447 367.80656
C 234.103435 367.80656 233.534631 368.042166 233.115308 368.461489
C 232.695985 368.880812 232.460379 369.449616 232.460379 370.042628
C 232.460379 370.63564 232.695985 371.204444 233.115308 371.623767
C 233.534631 372.04309 234.103435 372.278696 234.696447 372.278696
z
" clip-path="url(#p4dcdfb41a2)" style="fill: #1f77b4; fill-opacity: 0.65; stroke: #1f77b4; stroke-opacity: 0.65"/>
    <path d="M 257.802353 206.695599
C 258.395365 206.695599 258.964169 206.459993 259.383492 206.04067
C 259.802815 205.621347 260.038421 205.052543 260.038421 204.459531
C 260.038421 203.866519 259.802815 203.297715 259.383492 202.878392
C 258.964169 202.45907 258.395365 202.223463 257.802353 202.223463
C 257.209341 202.223463 256.640537 202.45907 256.221214 202.878392
C 255.801891 203.297715 255.566285 203.866519 255.566285 204.459531
C 255.566285 205.052543 255.801891 205.621347 256.221214 206.04067
C 256.640537 206.459993 257.209341 206.695599 257.802353 206.695599
z
" clip-path="url(#p4dcdfb41a2)" style="fill: #1f77b4; fill-opacity: 0.65; stroke: #1f77b4; stroke-opacity: 0.65"/>
    <path d="M 281.320094 256.371013
C 282.171547 256.371013 282.988241 256.032727 283.59031 255.430658
C 284.192378 254.82859 284.530664 254.011895 284.530664 253.160442
C 284.530664 252.308989 284.192378 251.492294 283.59031 250.890226
C 282.988241 250.288157 282.171547 249.949871 281.320094 249.949871
C 280.46864 249.949871 279.651946 250.288157 279.049877 250.890226
C 278.447809 251.492294 278.109523 252.308989 278.109523 253.160442
C 278.109523 254.011895 278.447809 254.82859 279.049877 255.430658
C 279.651946 256.032727 280.46864 256.371013 281.320094 256.371013
z
" clip-path="url(#p4dcdfb41a2)" style="fill: #1f77b4; fill-opacity: 0.65; stroke: #1f77b4; stroke-opacity: 0.65"/>
    <path d="M 280.907436 372.278696
C 281.500448 372.278696 282.069252 372.04309 282.488575 371.623767
C 282.907898 371.204444 283.143504 370.63564 283.143504 370.042628
C 283.143504 369.449616 282.907898 368.880812 282.488575 368.461489
C 282.069252 368.042166 281.500448 367.80656 280.907436 367.80656
C 280.314424 367.80656 279.74562 368.042166 279.326297 368.461489
C 278.906975 368.880812 278.671368 369.449616 278.671368 370.042628
C 278.671368 370.63564 278.906975 371.204444 279.326297 371.623767
C 279.74562 372.04309 280.314424 372.278696 280.907436 372.278696
z
" clip-path="url(#p4dcdfb41a2)" style="fill: #1f77b4; fill-opacity: 0.65; stroke: #1f77b4; stroke-opacity: 0.65"/>
    <path d="M 304.42603 257.478162
C 305.31279 257.478162 306.16335 257.125848 306.790384 256.498814
C 307.417418 255.87178 307.769732 255.02122 307.769732 254.13446
C 307.769732 253.2477 307.417418 252.39714 306.790384 251.770106
C 306.16335 251.143072 305.31279 250.790759 304.42603 250.790759
C 303.53927 250.790759 302.68871 251.143072 302.061676 251.770106
C 301.434642 252.39714 301.082329 253.2477 301.082329 254.13446
C 301.082329 255.02122 301.434642 255.87178 302.061676 256.498814
C 302.68871 257.125848 303.53927 257.478162 304.42603 257.478162
z
" clip-path="url(#p4dcdfb41a2)" style="fill: #1f77b4; fill-opacity: 0.65; stroke: #1f77b4; stroke-opacity: 0.65"/>
    <path d="M 327.90097 41.112503
C 328.493982 41.112503 329.062786 40.876896 329.482108 40.457573
C 329.901431 40.038251 330.137038 39.469447 330.137038 38.876435
C 330.137038 38.283422 329.901431 37.714619 329.482108 37.295296
C 329.062786 36.875973 328.493982 36.640367 327.90097 36.640367
C 327.307957 36.640367 326.739154 36.875973 326.319831 37.295296
C 325.900508 37.714619 325.664902 38.283422 325.664902 38.876435
C 325.664902 39.469447 325.900508 40.038251 326.319831 40.457573
C 326.739154 40.876896 327.307957 41.112503 327.90097 41.112503
z
" clip-path="url(#p4dcdfb41a2)" style="fill: #1f77b4; fill-opacity: 0.65; stroke: #1f77b4; stroke-opacity: 0.65"/>
    <path d="M 327.53134 325.305015
C 328.213401 325.305015 328.867618 325.034029 329.349908 324.55174
C 329.832198 324.06945 330.103183 323.415233 330.103183 322.733172
C 330.103183 322.051111 329.832198 321.396894 329.349908 320.914604
C 328.867618 320.432314 328.213401 320.161328 327.53134 320.161328
C 326.849279 320.161328 326.195062 320.432314 325.712772 320.914604
C 325.230482 321.396894 324.959497 322.051111 324.959497 322.733172
C 324.959497 323.415233 325.230482 324.06945 325.712772 324.55174
C 326.195062 325.034029 326.849279 325.305015 327.53134 325.305015
z
" clip-path="url(#p4dcdfb41a2)" style="fill: #1f77b4; fill-opacity: 0.65; stroke: #1f77b4; stroke-opacity: 0.65"/>
    <path d="M 351.331843 372.278696
C 351.924855 372.278696 352.493659 372.04309 352.912982 371.623767
C 353.332305 371.204444 353.567911 370.63564 353.567911 370.042628
C 353.567911 369.449616 353.332305 368.880812 352.912982 368.461489
C 352.493659 368.042166 351.924855 367.80656 351.331843 367.80656
C 350.738831 367.80656 350.170027 368.042166 349.750704 368.461489
C 349.331382 368.880812 349.095775 369.449616 349.095775 370.042628
C 349.095775 370.63564 349.331382 371.204444 349.750704 371.623767
C 350.170027 372.04309 350.738831 372.278696 351.331843 372.278696
z
" clip-path="url(#p4dcdfb41a2)" style="fill: #1f77b4; fill-opacity: 0.65; stroke: #1f77b4; stroke-opacity: 0.65"/>
    <path d="M 351.007163 239.940505
C 351.634197 239.940505 352.235634 239.691381 352.679014 239.248001
C 353.122394 238.804621 353.371517 238.203185 353.371517 237.576151
C 353.371517 236.949117 353.122394 236.34768 352.679014 235.9043
C 352.235634 235.46092 351.634197 235.211797 351.007163 235.211797
C 350.380129 235.211797 349.778693 235.46092 349.335312 235.9043
C 348.891932 236.34768 348.642809 236.949117 348.642809 237.576151
C 348.642809 238.203185 348.891932 238.804621 349.335312 239.248001
C 349.778693 239.691381 350.380129 239.940505 351.007163 239.940505
z
" clip-path="url(#p4dcdfb41a2)" style="fill: #1f77b4; fill-opacity: 0.65; stroke: #1f77b4; stroke-opacity: 0.65"/>
    <path d="M 350.636105 299.188753
C 351.362393 299.188753 352.059033 298.900196 352.572596 298.386632
C 353.08616 297.873069 353.374718 297.176429 353.374718 296.45014
C 353.374718 295.723852 353.08616 295.027212 352.572596 294.513649
C 352.059033 294.000085 351.362393 293.711528 350.636105 293.711528
C 349.909816 293.711528 349.213177 294.000085 348.699613 294.513649
C 348.18605 295.027212 347.897492 295.723852 347.897492 296.45014
C 347.897492 297.176429 348.18605 297.873069 348.699613 298.386632
C 349.213177 298.900196 349.909816 299.188753 350.636105 299.188753
z
" clip-path="url(#p4dcdfb41a2)" style="fill: #1f77b4; fill-opacity: 0.65; stroke: #1f77b4; stroke-opacity: 0.65"/>
    <path d="M 374.71824 372.278696
C 375.311252 372.278696 375.880056 372.04309 376.299379 371.623767
C 376.718702 371.204444 376.954308 370.63564 376.954308 370.042628
C 376.954308 369.449616 376.718702 368.880812 376.299379 368.461489
C 375.880056 368.042166 375.311252 367.80656 374.71824 367.80656
C 374.125228 367.80656 373.556424 368.042166 373.137101 368.461489
C 372.717778 368.880812 372.482172 369.449616 372.482172 370.042628
C 372.482172 370.63564 372.717778 371.204444 373.137101 371.623767
C 373.556424 372.04309 374.125228 372.278696 374.71824 372.278696
z
" clip-path="url(#p4dcdfb41a2)" style="fill: #1f77b4; fill-opacity: 0.65; stroke: #1f77b4; stroke-opacity: 0.65"/>
    <path d="M 374.438859 306.173743
C 375.065893 306.173743 375.66733 305.92462 376.11071 305.48124
C 376.55409 305.03786 376.803213 304.436423 376.803213 303.809389
C 376.803213 303.182355 376.55409 302.580918 376.11071 302.137538
C 375.66733 301.694158 375.065893 301.445035 374.438859 301.445035
C 373.811825 301.445035 373.210388 301.694158 372.767008 302.137538
C 372.323628 302.580918 372.074505 303.182355 372.074505 303.809389
C 372.074505 304.436423 372.323628 305.03786 372.767008 305.48124
C 373.210388 305.92462 373.811825 306.173743 374.438859 306.173743
z
" clip-path="url(#p4dcdfb41a2)" style="fill: #1f77b4; fill-opacity: 0.65; stroke: #1f77b4; stroke-opacity: 0.65"/>
    <path d="M 398.059728 41.112503
C 398.65274 41.112503 399.221544 40.876896 399.640867 40.457573
C 400.06019 40.038251 400.295796 39.469447 400.295796 38.876435
C 400.295796 38.283422 400.06019 37.714619 399.640867 37.295296
C 399.221544 36.875973 398.65274 36.640367 398.059728 36.640367
C 397.466716 36.640367 396.897912 36.875973 396.47859 37.295296
C 396.059267 37.714619 395.82366 38.283422 395.82366 38.876435
C 395.82366 39.469447 396.059267 40.038251 396.47859 40.457573
C 396.897912 40.876896 397.466716 41.112503 398.059728 41.112503
z
" clip-path="url(#p4dcdfb41a2)" style="fill: #1f77b4; fill-opacity: 0.65; stroke: #1f77b4; stroke-opacity: 0.65"/>
    <path d="M 397.825996 262.128513
C 398.482272 262.128513 399.111757 261.867772 399.575814 261.403715
C 400.039871 260.939657 400.300612 260.310173 400.300612 259.653897
C 400.300612 258.997621 400.039871 258.368136 399.575814 257.904079
C 399.111757 257.440022 398.482272 257.179281 397.825996 257.179281
C 397.16972 257.179281 396.540235 257.440022 396.076178 257.904079
C 395.612121 258.368136 395.35138 258.997621 395.35138 259.653897
C 395.35138 260.310173 395.612121 260.939657 396.076178 261.403715
C 396.540235 261.867772 397.16972 262.128513 397.825996 262.128513
z
" clip-path="url(#p4dcdfb41a2)" style="fill: #1f77b4; fill-opacity: 0.65; stroke: #1f77b4; stroke-opacity: 0.65"/>
    <path d="M 397.545526 240.387857
C 398.291199 240.387857 399.006432 240.091598 399.533703 239.564327
C 400.060973 239.037057 400.357232 238.321824 400.357232 237.576151
C 400.357232 236.830477 400.060973 236.115244 399.533703 235.587974
C 399.006432 235.060703 398.291199 234.764444 397.545526 234.764444
C 396.799852 234.764444 396.08462 235.060703 395.557349 235.587974
C 395.030078 236.115244 394.733819 236.830477 394.733819 237.576151
C 394.733819 238.321824 395.030078 239.037057 395.557349 239.564327
C 396.08462 240.091598 396.799852 240.387857 397.545526 240.387857
z
" clip-path="url(#p4dcdfb41a2)" style="fill: #1f77b4; fill-opacity: 0.65; stroke: #1f77b4; stroke-opacity: 0.65"/>
    <path d="M 421.168142 306.173743
C 421.795176 306.173743 422.396613 305.92462 422.839993 305.48124
C 423.283373 305.03786 423.532496 304.436423 423.532496 303.809389
C 423.532496 303.182355 423.283373 302.580918 422.839993 302.137538
C 422.396613 301.694158 421.795176 301.445035 421.168142 301.445035
C 420.541108 301.445035 419.939671 301.694158 419.496291 302.137538
C 419.052911 302.580918 418.803788 303.182355 418.803788 303.809389
C 418.803788 304.436423 419.052911 305.03786 419.496291 305.48124
C 419.939671 305.92462 420.541108 306.173743 421.168142 306.173743
z
" clip-path="url(#p4dcdfb41a2)" style="fill: #1f77b4; fill-opacity: 0.65; stroke: #1f77b4; stroke-opacity: 0.65"/>
    <path d="M 420.933506 206.695599
C 421.526518 206.695599 422.095321 206.459993 422.514644 206.04067
C 422.933967 205.621347 423.169573 205.052543 423.169573 204.459531
C 423.169573 203.866519 422.933967 203.297715 422.514644 202.878392
C 422.095321 202.45907 421.526518 202.223463 420.933506 202.223463
C 420.340493 202.223463 419.77169 202.45907 419.352367 202.878392
C 418.933044 203.297715 418.697438 203.866519 418.697438 204.459531
C 418.697438 205.052543 418.933044 205.621347 419.352367 206.04067
C 419.77169 206.459993 420.340493 206.695599 420.933506 206.695599
z
" clip-path="url(#p4dcdfb41a2)" style="fill: #1f77b4; fill-opacity: 0.65; stroke: #1f77b4; stroke-opacity: 0.65"/>
    <path d="M 444.606221 262.128513
C 445.262497 262.128513 445.891982 261.867772 446.356039 261.403715
C 446.820096 260.939657 447.080837 260.310173 447.080837 259.653897
C 447.080837 258.997621 446.820096 258.368136 446.356039 257.904079
C 445.891982 257.440022 445.262497 257.179281 444.606221 257.179281
C 443.949946 257.179281 443.320461 257.440022 442.856404 257.904079
C 442.392347 258.368136 442.131605 258.997621 442.131605 259.653897
C 442.131605 260.310173 442.392347 260.939657 442.856404 261.403715
C 443.320461 261.867772 443.949946 262.128513 444.606221 262.128513
z
" clip-path="url(#p4dcdfb41a2)" style="fill: #1f77b4; fill-opacity: 0.65; stroke: #1f77b4; stroke-opacity: 0.65"/>
    <path d="M 444.464876 289.487148
C 445.057888 289.487148 445.626692 289.251541 446.046015 288.832218
C 446.465338 288.412895 446.700944 287.844092 446.700944 287.25108
C 446.700944 286.658067 446.465338 286.089264 446.046015 285.669941
C 445.626692 285.250618 445.057888 285.015012 444.464876 285.015012
C 443.871864 285.015012 443.30306 285.250618 442.883737 285.669941
C 442.464414 286.089264 442.228808 286.658067 442.228808 287.25108
C 442.228808 287.844092 442.464414 288.412895 442.883737 288.832218
C 443.30306 289.251541 443.871864 289.487148 444.464876 289.487148
z
" clip-path="url(#p4dcdfb41a2)" style="fill: #1f77b4; fill-opacity: 0.65; stroke: #1f77b4; stroke-opacity: 0.65"/>
    <path d="M 444.276423 239.940505
C 444.903457 239.940505 445.504893 239.691381 445.948273 239.248001
C 446.391653 238.804621 446.640777 238.203185 446.640777 237.576151
C 446.640777 236.949117 446.391653 236.34768 445.948273 235.9043
C 445.504893 235.46092 444.903457 235.211797 444.276423 235.211797
C 443.649389 235.211797 443.047952 235.46092 442.604572 235.9043
C 442.161192 236.34768 441.912069 236.949117 441.912069 237.576151
C 441.912069 238.203185 442.161192 238.804621 442.604572 239.248001
C 443.047952 239.691381 443.649389 239.940505 444.276423 239.940505
z
" clip-path="url(#p4dcdfb41a2)" style="fill: #1f77b4; fill-opacity: 0.65; stroke: #1f77b4; stroke-opacity: 0.65"/>
    <path d="M 537.14059 372.278696
C 537.733602 372.278696 538.302406 372.04309 538.721729 371.623767
C 539.141052 371.204444 539.376658 370.63564 539.376658 370.042628
C 539.376658 369.449616 539.141052 368.880812 538.721729 368.461489
C 538.302406 368.042166 537.733602 367.80656 537.14059 367.80656
C 536.547578 367.80656 535.978774 368.042166 535.559451 368.461489
C 535.140128 368.880812 534.904522 369.449616 534.904522 370.042628
C 534.904522 370.63564 535.140128 371.204444 535.559451 371.623767
C 535.978774 372.04309 536.547578 372.278696 537.14059 372.278696
z
" clip-path="url(#p4dcdfb41a2)" style="fill: #1f77b4; fill-opacity: 0.65; stroke: #1f77b4; stroke-opacity: 0.65"/>
    <path d="M 537.044862 206.695599
C 537.637875 206.695599 538.206678 206.459993 538.626001 206.04067
C 539.045324 205.621347 539.28093 205.052543 539.28093 204.459531
C 539.28093 203.866519 539.045324 203.297715 538.626001 202.878392
C 538.206678 202.45907 537.637875 202.223463 537.044862 202.223463
C 536.45185 202.223463 535.883046 202.45907 535.463724 202.878392
C 535.044401 203.297715 534.808794 203.866519 534.808794 204.459531
C 534.808794 205.052543 535.044401 205.621347 535.463724 206.04067
C 535.883046 206.459993 536.45185 206.695599 537.044862 206.695599
z
" clip-path="url(#p4dcdfb41a2)" style="fill: #1f77b4; fill-opacity: 0.65; stroke: #1f77b4; stroke-opacity: 0.65"/>
    <path d="M 560.251183 41.112503
C 560.844195 41.112503 561.412999 40.876896 561.832322 40.457573
C 562.251645 40.038251 562.487251 39.469447 562.487251 38.876435
C 562.487251 38.283422 562.251645 37.714619 561.832322 37.295296
C 561.412999 36.875973 560.844195 36.640367 560.251183 36.640367
C 559.658171 36.640367 559.089367 36.875973 558.670044 37.295296
C 558.250721 37.714619 558.015115 38.283422 558.015115 38.876435
C 558.015115 39.469447 558.250721 40.038251 558.670044 40.457573
C 559.089367 40.876896 559.658171 41.112503 560.251183 41.112503
z
" clip-path="url(#p4dcdfb41a2)" style="fill: #1f77b4; fill-opacity: 0.65; stroke: #1f77b4; stroke-opacity: 0.65"/>
    <path d="M 560.155065 239.940505
C 560.782099 239.940505 561.383536 239.691381 561.826916 239.248001
C 562.270296 238.804621 562.519419 238.203185 562.519419 237.576151
C 562.519419 236.949117 562.270296 236.34768 561.826916 235.9043
C 561.383536 235.46092 560.782099 235.211797 560.155065 235.211797
C 559.528031 235.211797 558.926594 235.46092 558.483214 235.9043
C 558.039834 236.34768 557.790711 236.949117 557.790711 237.576151
C 557.790711 238.203185 558.039834 238.804621 558.483214 239.248001
C 558.926594 239.691381 559.528031 239.940505 560.155065 239.940505
z
" clip-path="url(#p4dcdfb41a2)" style="fill: #1f77b4; fill-opacity: 0.65; stroke: #1f77b4; stroke-opacity: 0.65"/>
    <path d="M 583.410416 239.940505
C 584.03745 239.940505 584.638887 239.691381 585.082267 239.248001
C 585.525647 238.804621 585.77477 238.203185 585.77477 237.576151
C 585.77477 236.949117 585.525647 236.34768 585.082267 235.9043
C 584.638887 235.46092 584.03745 235.211797 583.410416 235.211797
C 582.783382 235.211797 582.181945 235.46092 581.738565 235.9043
C 581.295185 236.34768 581.046062 236.949117 581.046062 237.576151
C 581.046062 238.203185 581.295185 238.804621 581.738565 239.248001
C 582.181945 239.691381 582.783382 239.940505 583.410416 239.940505
z
" clip-path="url(#p4dcdfb41a2)" style="fill: #1f77b4; fill-opacity: 0.65; stroke: #1f77b4; stroke-opacity: 0.65"/>
    <path d="M 606.522088 41.112503
C 607.1151 41.112503 607.683904 40.876896 608.103227 40.457573
C 608.52255 40.038251 608.758156 39.469447 608.758156 38.876435
C 608.758156 38.283422 608.52255 37.714619 608.103227 37.295296
C 607.683904 36.875973 607.1151 36.640367 606.522088 36.640367
C 605.929076 36.640367 605.360272 36.875973 604.940949 37.295296
C 604.521626 37.714619 604.28602 38.283422 604.28602 38.876435
C 604.28602 39.469447 604.521626 40.038251 604.940949 40.457573
C 605.360272 40.876896 605.929076 41.112503 606.522088 41.112503
z
" clip-path="url(#p4dcdfb41a2)" style="fill: #1f77b4; fill-opacity: 0.65; stroke: #1f77b4; stroke-opacity: 0.65"/>
   </g>
   <g id="matplotlib.axis_1">
    <g id="xtick_1">
     <g id="line2d_1">
      <defs>
       <path id="m2953404bdf" d="M 0 0
L 0 3.5
" style="stroke: #000000; stroke-width: 0.8"/>
      </defs>
      <g>
       <use xlink:href="#m2953404bdf" x="96.546557" y="386.600938" style="stroke: #000000; stroke-width: 0.8"/>
      </g>
     </g>
     <g id="text_1">
      <!-- 24 -->
      <g transform="translate(90.184057 401.198594) scale(0.1 -0.1)">
       <defs>
        <path id="DejaVuSans-15" d="M 1228 531
L 3431 531
L 3431 0
L 469 0
L 469 531
Q 828 903 1448 1529
Q 2069 2156 2228 2338
Q 2531 2678 2651 2914
Q 2772 3150 2772 3378
Q 2772 3750 2511 3984
Q 2250 4219 1831 4219
Q 1534 4219 1204 4116
Q 875 4013 500 3803
L 500 4441
Q 881 4594 1212 4672
Q 1544 4750 1819 4750
Q 2544 4750 2975 4387
Q 3406 4025 3406 3419
Q 3406 3131 3298 2873
Q 3191 2616 2906 2266
Q 2828 2175 2409 1742
Q 1991 1309 1228 531
z
" transform="scale(0.015625)"/>
        <path id="DejaVuSans-17" d="M 2419 4116
L 825 1625
L 2419 1625
L 2419 4116
z
M 2253 4666
L 3047 4666
L 3047 1625
L 3713 1625
L 3713 1100
L 3047 1100
L 3047 0
L 2419 0
L 2419 1100
L 313 1100
L 313 1709
L 2253 4666
z
" transform="scale(0.015625)"/>
       </defs>
       <use xlink:href="#DejaVuSans-15"/>
       <use xlink:href="#DejaVuSans-17" transform="translate(63.625 0)"/>
      </g>
     </g>
    </g>
    <g id="xtick_2">
     <g id="line2d_2">
      <g>
       <use xlink:href="#m2953404bdf" x="199.335682" y="386.600938" style="stroke: #000000; stroke-width: 0.8"/>
      </g>
     </g>
     <g id="text_2">
      <!-- 25 -->
      <g transform="translate(192.973182 401.198594) scale(0.1 -0.1)">
       <defs>
        <path id="DejaVuSans-18" d="M 691 4666
L 3169 4666
L 3169 4134
L 1269 4134
L 1269 2991
Q 1406 3038 1543 3061
Q 1681 3084 1819 3084
Q 2600 3084 3056 2656
Q 3513 2228 3513 1497
Q 3513 744 3044 326
Q 2575 -91 1722 -91
Q 1428 -91 1123 -41
Q 819 9 494 109
L 494 744
Q 775 591 1075 516
Q 1375 441 1709 441
Q 2250 441 2565 725
Q 2881 1009 2881 1497
Q 2881 1984 2565 2268
Q 2250 2553 1709 2553
Q 1456 2553 1204 2497
Q 953 2441 691 2322
L 691 4666
z
" transform="scale(0.015625)"/>
       </defs>
       <use xlink:href="#DejaVuSans-15"/>
       <use xlink:href="#DejaVuSans-18" transform="translate(63.625 0)"/>
      </g>
     </g>
    </g>
    <g id="xtick_3">
     <g id="line2d_3">
      <g>
       <use xlink:href="#m2953404bdf" x="302.124808" y="386.600938" style="stroke: #000000; stroke-width: 0.8"/>
      </g>
     </g>
     <g id="text_3">
      <!-- 26 -->
      <g transform="translate(295.762308 401.198594) scale(0.1 -0.1)">
       <defs>
        <path id="DejaVuSans-19" d="M 2113 2584
Q 1688 2584 1439 2293
Q 1191 2003 1191 1497
Q 1191 994 1439 701
Q 1688 409 2113 409
Q 2538 409 2786 701
Q 3034 994 3034 1497
Q 3034 2003 2786 2293
Q 2538 2584 2113 2584
z
M 3366 4563
L 3366 3988
Q 3128 4100 2886 4159
Q 2644 4219 2406 4219
Q 1781 4219 1451 3797
Q 1122 3375 1075 2522
Q 1259 2794 1537 2939
Q 1816 3084 2150 3084
Q 2853 3084 3261 2657
Q 3669 2231 3669 1497
Q 3669 778 3244 343
Q 2819 -91 2113 -91
Q 1303 -91 875 529
Q 447 1150 447 2328
Q 447 3434 972 4092
Q 1497 4750 2381 4750
Q 2619 4750 2861 4703
Q 3103 4656 3366 4563
z
" transform="scale(0.015625)"/>
       </defs>
       <use xlink:href="#DejaVuSans-15"/>
       <use xlink:href="#DejaVuSans-19" transform="translate(63.625 0)"/>
      </g>
     </g>
    </g>
    <g id="xtick_4">
     <g id="line2d_4">
      <g>
       <use xlink:href="#m2953404bdf" x="404.913933" y="386.600938" style="stroke: #000000; stroke-width: 0.8"/>
      </g>
     </g>
     <g id="text_4">
      <!-- 27 -->
      <g transform="translate(398.551433 401.198594) scale(0.1 -0.1)">
       <defs>
        <path id="DejaVuSans-1a" d="M 525 4666
L 3525 4666
L 3525 4397
L 1831 0
L 1172 0
L 2766 4134
L 525 4134
L 525 4666
z
" transform="scale(0.015625)"/>
       </defs>
       <use xlink:href="#DejaVuSans-15"/>
       <use xlink:href="#DejaVuSans-1a" transform="translate(63.625 0)"/>
      </g>
     </g>
    </g>
    <g id="xtick_5">
     <g id="line2d_5">
      <g>
       <use xlink:href="#m2953404bdf" x="507.703059" y="386.600938" style="stroke: #000000; stroke-width: 0.8"/>
      </g>
     </g>
     <g id="text_5">
      <!-- 28 -->
      <g transform="translate(501.340559 401.198594) scale(0.1 -0.1)">
       <defs>
        <path id="DejaVuSans-1b" d="M 2034 2216
Q 1584 2216 1326 1975
Q 1069 1734 1069 1313
Q 1069 891 1326 650
Q 1584 409 2034 409
Q 2484 409 2743 651
Q 3003 894 3003 1313
Q 3003 1734 2745 1975
Q 2488 2216 2034 2216
z
M 1403 2484
Q 997 2584 770 2862
Q 544 3141 544 3541
Q 544 4100 942 4425
Q 1341 4750 2034 4750
Q 2731 4750 3128 4425
Q 3525 4100 3525 3541
Q 3525 3141 3298 2862
Q 3072 2584 2669 2484
Q 3125 2378 3379 2068
Q 3634 1759 3634 1313
Q 3634 634 3220 271
Q 2806 -91 2034 -91
Q 1263 -91 848 271
Q 434 634 434 1313
Q 434 1759 690 2068
Q 947 2378 1403 2484
z
M 1172 3481
Q 1172 3119 1398 2916
Q 1625 2713 2034 2713
Q 2441 2713 2670 2916
Q 2900 3119 2900 3481
Q 2900 3844 2670 4047
Q 2441 4250 2034 4250
Q 1625 4250 1398 4047
Q 1172 3844 1172 3481
z
" transform="scale(0.015625)"/>
       </defs>
       <use xlink:href="#DejaVuSans-15"/>
       <use xlink:href="#DejaVuSans-1b" transform="translate(63.625 0)"/>
      </g>
     </g>
    </g>
    <g id="xtick_6">
     <g id="line2d_6">
      <g>
       <use xlink:href="#m2953404bdf" x="610.492184" y="386.600938" style="stroke: #000000; stroke-width: 0.8"/>
      </g>
     </g>
     <g id="text_6">
      <!-- 29 -->
      <g transform="translate(604.129684 401.198594) scale(0.1 -0.1)">
       <defs>
        <path id="DejaVuSans-1c" d="M 703 97
L 703 672
Q 941 559 1184 500
Q 1428 441 1663 441
Q 2288 441 2617 861
Q 2947 1281 2994 2138
Q 2813 1869 2534 1725
Q 2256 1581 1919 1581
Q 1219 1581 811 2004
Q 403 2428 403 3163
Q 403 3881 828 4315
Q 1253 4750 1959 4750
Q 2769 4750 3195 4129
Q 3622 3509 3622 2328
Q 3622 1225 3098 567
Q 2575 -91 1691 -91
Q 1453 -91 1209 -44
Q 966 3 703 97
z
M 1959 2075
Q 2384 2075 2632 2365
Q 2881 2656 2881 3163
Q 2881 3666 2632 3958
Q 2384 4250 1959 4250
Q 1534 4250 1286 3958
Q 1038 3666 1038 3163
Q 1038 2656 1286 2365
Q 1534 2075 1959 2075
z
" transform="scale(0.015625)"/>
       </defs>
       <use xlink:href="#DejaVuSans-15"/>
       <use xlink:href="#DejaVuSans-1c" transform="translate(63.625 0)"/>
      </g>
     </g>
    </g>
    <g id="text_7">
     <!-- Latitude -->
     <g transform="translate(318.125 415.199375) scale(0.1 -0.1)">
      <defs>
       <path id="DejaVuSans-2f" d="M 628 4666
L 1259 4666
L 1259 531
L 3531 531
L 3531 0
L 628 0
L 628 4666
z
" transform="scale(0.015625)"/>
       <path id="DejaVuSans-44" d="M 2194 1759
Q 1497 1759 1228 1600
Q 959 1441 959 1056
Q 959 750 1161 570
Q 1363 391 1709 391
Q 2188 391 2477 730
Q 2766 1069 2766 1631
L 2766 1759
L 2194 1759
z
M 3341 1997
L 3341 0
L 2766 0
L 2766 531
Q 2569 213 2275 61
Q 1981 -91 1556 -91
Q 1019 -91 701 211
Q 384 513 384 1019
Q 384 1609 779 1909
Q 1175 2209 1959 2209
L 2766 2209
L 2766 2266
Q 2766 2663 2505 2880
Q 2244 3097 1772 3097
Q 1472 3097 1187 3025
Q 903 2953 641 2809
L 641 3341
Q 956 3463 1253 3523
Q 1550 3584 1831 3584
Q 2591 3584 2966 3190
Q 3341 2797 3341 1997
z
" transform="scale(0.015625)"/>
       <path id="DejaVuSans-57" d="M 1172 4494
L 1172 3500
L 2356 3500
L 2356 3053
L 1172 3053
L 1172 1153
Q 1172 725 1289 603
Q 1406 481 1766 481
L 2356 481
L 2356 0
L 1766 0
Q 1100 0 847 248
Q 594 497 594 1153
L 594 3053
L 172 3053
L 172 3500
L 594 3500
L 594 4494
L 1172 4494
z
" transform="scale(0.015625)"/>
       <path id="DejaVuSans-4c" d="M 603 3500
L 1178 3500
L 1178 0
L 603 0
L 603 3500
z
M 603 4863
L 1178 4863
L 1178 4134
L 603 4134
L 603 4863
z
" transform="scale(0.015625)"/>
       <path id="DejaVuSans-58" d="M 544 1381
L 544 3500
L 1119 3500
L 1119 1403
Q 1119 906 1312 657
Q 1506 409 1894 409
Q 2359 409 2629 706
Q 2900 1003 2900 1516
L 2900 3500
L 3475 3500
L 3475 0
L 2900 0
L 2900 538
Q 2691 219 2414 64
Q 2138 -91 1772 -91
Q 1169 -91 856 284
Q 544 659 544 1381
z
M 1991 3584
L 1991 3584
z
" transform="scale(0.015625)"/>
       <path id="DejaVuSans-47" d="M 2906 2969
L 2906 4863
L 3481 4863
L 3481 0
L 2906 0
L 2906 525
Q 2725 213 2448 61
Q 2172 -91 1784 -91
Q 1150 -91 751 415
Q 353 922 353 1747
Q 353 2572 751 3078
Q 1150 3584 1784 3584
Q 2172 3584 2448 3432
Q 2725 3281 2906 2969
z
M 947 1747
Q 947 1113 1208 752
Q 1469 391 1925 391
Q 2381 391 2643 752
Q 2906 1113 2906 1747
Q 2906 2381 2643 2742
Q 2381 3103 1925 3103
Q 1469 3103 1208 2742
Q 947 2381 947 1747
z
" transform="scale(0.015625)"/>
       <path id="DejaVuSans-48" d="M 3597 1894
L 3597 1613
L 953 1613
Q 991 1019 1311 708
Q 1631 397 2203 397
Q 2534 397 2845 478
Q 3156 559 3463 722
L 3463 178
Q 3153 47 2828 -22
Q 2503 -91 2169 -91
Q 1331 -91 842 396
Q 353 884 353 1716
Q 353 2575 817 3079
Q 1281 3584 2069 3584
Q 2775 3584 3186 3129
Q 3597 2675 3597 1894
z
M 3022 2063
Q 3016 2534 2758 2815
Q 2500 3097 2075 3097
Q 1594 3097 1305 2825
Q 1016 2553 972 2059
L 3022 2063
z
" transform="scale(0.015625)"/>
      </defs>
      <use xlink:href="#DejaVuSans-2f"/>
      <use xlink:href="#DejaVuSans-44" transform="translate(55.71875 0)"/>
      <use xlink:href="#DejaVuSans-57" transform="translate(117 0)"/>
      <use xlink:href="#DejaVuSans-4c" transform="translate(156.203125 0)"/>
      <use xlink:href="#DejaVuSans-57" transform="translate(183.984375 0)"/>
      <use xlink:href="#DejaVuSans-58" transform="translate(223.1875 0)"/>
      <use xlink:href="#DejaVuSans-47" transform="translate(286.5625 0)"/>
      <use xlink:href="#DejaVuSans-48" transform="translate(350.046875 0)"/>
     </g>
    </g>
   </g>
   <g id="matplotlib.axis_2">
    <g id="ytick_1">
     <g id="line2d_7">
      <defs>
       <path id="m91d706e18b" d="M 0 0
L -3.5 0
" style="stroke: #000000; stroke-width: 0.8"/>
      </defs>
      <g>
       <use xlink:href="#m91d706e18b" x="44.103906" y="370.042628" style="stroke: #000000; stroke-width: 0.8"/>
      </g>
     </g>
     <g id="text_8">
      <!-- 0.0 -->
      <g transform="translate(21.200781 373.841456) scale(0.1 -0.1)">
       <defs>
        <path id="DejaVuSans-13" d="M 2034 4250
Q 1547 4250 1301 3770
Q 1056 3291 1056 2328
Q 1056 1369 1301 889
Q 1547 409 2034 409
Q 2525 409 2770 889
Q 3016 1369 3016 2328
Q 3016 3291 2770 3770
Q 2525 4250 2034 4250
z
M 2034 4750
Q 2819 4750 3233 4129
Q 3647 3509 3647 2328
Q 3647 1150 3233 529
Q 2819 -91 2034 -91
Q 1250 -91 836 529
Q 422 1150 422 2328
Q 422 3509 836 4129
Q 1250 4750 2034 4750
z
" transform="scale(0.015625)"/>
        <path id="DejaVuSans-11" d="M 684 794
L 1344 794
L 1344 0
L 684 0
L 684 794
z
" transform="scale(0.015625)"/>
       </defs>
       <use xlink:href="#DejaVuSans-13"/>
       <use xlink:href="#DejaVuSans-11" transform="translate(63.625 0)"/>
       <use xlink:href="#DejaVuSans-13" transform="translate(95.40625 0)"/>
      </g>
     </g>
    </g>
    <g id="ytick_2">
     <g id="line2d_8">
      <g>
       <use xlink:href="#m91d706e18b" x="44.103906" y="303.809389" style="stroke: #000000; stroke-width: 0.8"/>
      </g>
     </g>
     <g id="text_9">
      <!-- 0.2 -->
      <g transform="translate(21.200781 307.608217) scale(0.1 -0.1)">
       <use xlink:href="#DejaVuSans-13"/>
       <use xlink:href="#DejaVuSans-11" transform="translate(63.625 0)"/>
       <use xlink:href="#DejaVuSans-15" transform="translate(95.40625 0)"/>
      </g>
     </g>
    </g>
    <g id="ytick_3">
     <g id="line2d_9">
      <g>
       <use xlink:href="#m91d706e18b" x="44.103906" y="237.576151" style="stroke: #000000; stroke-width: 0.8"/>
      </g>
     </g>
     <g id="text_10">
      <!-- 0.4 -->
      <g transform="translate(21.200781 241.374979) scale(0.1 -0.1)">
       <use xlink:href="#DejaVuSans-13"/>
       <use xlink:href="#DejaVuSans-11" transform="translate(63.625 0)"/>
       <use xlink:href="#DejaVuSans-17" transform="translate(95.40625 0)"/>
      </g>
     </g>
    </g>
    <g id="ytick_4">
     <g id="line2d_10">
      <g>
       <use xlink:href="#m91d706e18b" x="44.103906" y="171.342912" style="stroke: #000000; stroke-width: 0.8"/>
      </g>
     </g>
     <g id="text_11">
      <!-- 0.6 -->
      <g transform="translate(21.200781 175.14174) scale(0.1 -0.1)">
       <use xlink:href="#DejaVuSans-13"/>
       <use xlink:href="#DejaVuSans-11" transform="translate(63.625 0)"/>
       <use xlink:href="#DejaVuSans-19" transform="translate(95.40625 0)"/>
      </g>
     </g>
    </g>
    <g id="ytick_5">
     <g id="line2d_11">
      <g>
       <use xlink:href="#m91d706e18b" x="44.103906" y="105.109673" style="stroke: #000000; stroke-width: 0.8"/>
      </g>
     </g>
     <g id="text_12">
      <!-- 0.8 -->
      <g transform="translate(21.200781 108.908501) scale(0.1 -0.1)">
       <use xlink:href="#DejaVuSans-13"/>
       <use xlink:href="#DejaVuSans-11" transform="translate(63.625 0)"/>
       <use xlink:href="#DejaVuSans-1b" transform="translate(95.40625 0)"/>
      </g>
     </g>
    </g>
    <g id="ytick_6">
     <g id="line2d_12">
      <g>
       <use xlink:href="#m91d706e18b" x="44.103906" y="38.876435" style="stroke: #000000; stroke-width: 0.8"/>
      </g>
     </g>
     <g id="text_13">
      <!-- 1.0 -->
      <g transform="translate(21.200781 42.675263) scale(0.1 -0.1)">
       <defs>
        <path id="DejaVuSans-14" d="M 794 531
L 1825 531
L 1825 4091
L 703 3866
L 703 4441
L 1819 4666
L 2450 4666
L 2450 531
L 3481 531
L 3481 0
L 794 0
L 794 531
z
" transform="scale(0.015625)"/>
       </defs>
       <use xlink:href="#DejaVuSans-14"/>
       <use xlink:href="#DejaVuSans-11" transform="translate(63.625 0)"/>
       <use xlink:href="#DejaVuSans-13" transform="translate(95.40625 0)"/>
      </g>
     </g>
    </g>
    <g id="text_14">
     <!-- C3 representation -->
     <g transform="translate(14.798438 249.390781) rotate(-90) scale(0.1 -0.1)">
      <defs>
       <path id="DejaVuSans-26" d="M 4122 4306
L 4122 3641
Q 3803 3938 3442 4084
Q 3081 4231 2675 4231
Q 1875 4231 1450 3742
Q 1025 3253 1025 2328
Q 1025 1406 1450 917
Q 1875 428 2675 428
Q 3081 428 3442 575
Q 3803 722 4122 1019
L 4122 359
Q 3791 134 3420 21
Q 3050 -91 2638 -91
Q 1578 -91 968 557
Q 359 1206 359 2328
Q 359 3453 968 4101
Q 1578 4750 2638 4750
Q 3056 4750 3426 4639
Q 3797 4528 4122 4306
z
" transform="scale(0.015625)"/>
       <path id="DejaVuSans-16" d="M 2597 2516
Q 3050 2419 3304 2112
Q 3559 1806 3559 1356
Q 3559 666 3084 287
Q 2609 -91 1734 -91
Q 1441 -91 1130 -33
Q 819 25 488 141
L 488 750
Q 750 597 1062 519
Q 1375 441 1716 441
Q 2309 441 2620 675
Q 2931 909 2931 1356
Q 2931 1769 2642 2001
Q 2353 2234 1838 2234
L 1294 2234
L 1294 2753
L 1863 2753
Q 2328 2753 2575 2939
Q 2822 3125 2822 3475
Q 2822 3834 2567 4026
Q 2313 4219 1838 4219
Q 1578 4219 1281 4162
Q 984 4106 628 3988
L 628 4550
Q 988 4650 1302 4700
Q 1616 4750 1894 4750
Q 2613 4750 3031 4423
Q 3450 4097 3450 3541
Q 3450 3153 3228 2886
Q 3006 2619 2597 2516
z
" transform="scale(0.015625)"/>
       <path id="DejaVuSans-3" transform="scale(0.015625)"/>
       <path id="DejaVuSans-55" d="M 2631 2963
Q 2534 3019 2420 3045
Q 2306 3072 2169 3072
Q 1681 3072 1420 2755
Q 1159 2438 1159 1844
L 1159 0
L 581 0
L 581 3500
L 1159 3500
L 1159 2956
Q 1341 3275 1631 3429
Q 1922 3584 2338 3584
Q 2397 3584 2469 3576
Q 2541 3569 2628 3553
L 2631 2963
z
" transform="scale(0.015625)"/>
       <path id="DejaVuSans-53" d="M 1159 525
L 1159 -1331
L 581 -1331
L 581 3500
L 1159 3500
L 1159 2969
Q 1341 3281 1617 3432
Q 1894 3584 2278 3584
Q 2916 3584 3314 3078
Q 3713 2572 3713 1747
Q 3713 922 3314 415
Q 2916 -91 2278 -91
Q 1894 -91 1617 61
Q 1341 213 1159 525
z
M 3116 1747
Q 3116 2381 2855 2742
Q 2594 3103 2138 3103
Q 1681 3103 1420 2742
Q 1159 2381 1159 1747
Q 1159 1113 1420 752
Q 1681 391 2138 391
Q 2594 391 2855 752
Q 3116 1113 3116 1747
z
" transform="scale(0.015625)"/>
       <path id="DejaVuSans-56" d="M 2834 3397
L 2834 2853
Q 2591 2978 2328 3040
Q 2066 3103 1784 3103
Q 1356 3103 1142 2972
Q 928 2841 928 2578
Q 928 2378 1081 2264
Q 1234 2150 1697 2047
L 1894 2003
Q 2506 1872 2764 1633
Q 3022 1394 3022 966
Q 3022 478 2636 193
Q 2250 -91 1575 -91
Q 1294 -91 989 -36
Q 684 19 347 128
L 347 722
Q 666 556 975 473
Q 1284 391 1588 391
Q 1994 391 2212 530
Q 2431 669 2431 922
Q 2431 1156 2273 1281
Q 2116 1406 1581 1522
L 1381 1569
Q 847 1681 609 1914
Q 372 2147 372 2553
Q 372 3047 722 3315
Q 1072 3584 1716 3584
Q 2034 3584 2315 3537
Q 2597 3491 2834 3397
z
" transform="scale(0.015625)"/>
       <path id="DejaVuSans-51" d="M 3513 2113
L 3513 0
L 2938 0
L 2938 2094
Q 2938 2591 2744 2837
Q 2550 3084 2163 3084
Q 1697 3084 1428 2787
Q 1159 2491 1159 1978
L 1159 0
L 581 0
L 581 3500
L 1159 3500
L 1159 2956
Q 1366 3272 1645 3428
Q 1925 3584 2291 3584
Q 2894 3584 3203 3211
Q 3513 2838 3513 2113
z
" transform="scale(0.015625)"/>
       <path id="DejaVuSans-52" d="M 1959 3097
Q 1497 3097 1228 2736
Q 959 2375 959 1747
Q 959 1119 1226 758
Q 1494 397 1959 397
Q 2419 397 2687 759
Q 2956 1122 2956 1747
Q 2956 2369 2687 2733
Q 2419 3097 1959 3097
z
M 1959 3584
Q 2709 3584 3137 3096
Q 3566 2609 3566 1747
Q 3566 888 3137 398
Q 2709 -91 1959 -91
Q 1206 -91 779 398
Q 353 888 353 1747
Q 353 2609 779 3096
Q 1206 3584 1959 3584
z
" transform="scale(0.015625)"/>
      </defs>
      <use xlink:href="#DejaVuSans-26"/>
      <use xlink:href="#DejaVuSans-16" transform="translate(69.828125 0)"/>
      <use xlink:href="#DejaVuSans-3" transform="translate(133.453125 0)"/>
      <use xlink:href="#DejaVuSans-55" transform="translate(165.234375 0)"/>
      <use xlink:href="#DejaVuSans-48" transform="translate(204.140625 0)"/>
      <use xlink:href="#DejaVuSans-53" transform="translate(265.671875 0)"/>
      <use xlink:href="#DejaVuSans-55" transform="translate(329.15625 0)"/>
      <use xlink:href="#DejaVuSans-48" transform="translate(368.0625 0)"/>
      <use xlink:href="#DejaVuSans-56" transform="translate(429.59375 0)"/>
      <use xlink:href="#DejaVuSans-48" transform="translate(481.6875 0)"/>
      <use xlink:href="#DejaVuSans-51" transform="translate(543.21875 0)"/>
      <use xlink:href="#DejaVuSans-57" transform="translate(606.59375 0)"/>
      <use xlink:href="#DejaVuSans-44" transform="translate(645.796875 0)"/>
      <use xlink:href="#DejaVuSans-57" transform="translate(707.078125 0)"/>
      <use xlink:href="#DejaVuSans-4c" transform="translate(746.28125 0)"/>
      <use xlink:href="#DejaVuSans-52" transform="translate(774.0625 0)"/>
      <use xlink:href="#DejaVuSans-51" transform="translate(835.25 0)"/>
     </g>
    </g>
   </g>
   <g id="line2d_13">
    <path d="M 70.885724 248.846241
L 81.670349 252.647295
L 92.454974 256.193461
L 103.239599 259.490457
L 114.024224 262.544571
L 124.808848 265.362443
L 135.593473 267.950881
L 146.378098 270.316702
L 157.162723 272.466597
L 167.947347 274.407019
L 178.731972 276.144086
L 189.516597 277.683509
L 200.301222 279.030528
L 211.085846 280.18986
L 221.870471 281.165667
L 232.655096 281.961519
L 243.439721 282.580372
L 254.224346 283.024556
L 265.00897 283.295757
L 275.793595 283.395009
L 286.57822 283.322693
L 297.362845 283.078532
L 308.147469 282.661593
L 318.932094 282.070291
L 329.716719 281.3024
L 340.501344 280.355058
L 351.285968 279.22479
L 362.070593 277.907528
L 372.855218 276.398636
L 383.639843 274.692956
L 394.424468 272.784846
L 405.209092 270.668247
L 415.993717 268.336754
L 426.778342 265.783705
L 437.562967 263.002296
L 448.347591 259.985706
L 459.132216 256.727258
L 469.916841 253.220595
L 480.701466 249.459894
L 491.486091 245.440102
L 502.270715 241.1572
L 513.05534 236.608499
L 523.839965 231.792953
L 534.62459 226.711499
L 545.409214 221.367393
L 556.193839 215.766557
L 566.978464 209.917905
L 577.763089 203.833636
L 588.547713 197.529483
L 602.927213 188.816033
L 606.522088 186.588418
L 606.522088 186.588418
" clip-path="url(#p4dcdfb41a2)" style="fill: none; stroke: #1f77b4; stroke-width: 2; stroke-linecap: square"/>
   </g>
   <g id="line2d_14">
    <path d="M 393.60713 386.600938
L 393.60713 22.318125
" clip-path="url(#p4dcdfb41a2)" style="fill: none; stroke-dasharray: 5.55,2.4; stroke-dashoffset: 0; stroke: #1f77b4; stroke-width: 1.5"/>
   </g>
   <g id="patch_3">
    <path d="M 44.103906 386.600938
L 44.103906 22.318125
" style="fill: none; stroke: #000000; stroke-width: 0.8; stroke-linejoin: miter; stroke-linecap: square"/>
   </g>
   <g id="patch_4">
    <path d="M 633.303906 386.600938
L 633.303906 22.318125
" style="fill: none; stroke: #000000; stroke-width: 0.8; stroke-linejoin: miter; stroke-linecap: square"/>
   </g>
   <g id="patch_5">
    <path d="M 44.103906 386.600938
L 633.303906 386.600938
" style="fill: none; stroke: #000000; stroke-width: 0.8; stroke-linejoin: miter; stroke-linecap: square"/>
   </g>
   <g id="patch_6">
    <path d="M 44.103906 22.318125
L 633.303906 22.318125
" style="fill: none; stroke: #000000; stroke-width: 0.8; stroke-linejoin: miter; stroke-linecap: square"/>
   </g>
   <g id="text_15">
    <!-- Exploratory Costa Central del Golfo C3 curve -->
    <g transform="translate(203.969219 16.318125) scale(0.12 -0.12)">
     <defs>
      <path id="DejaVuSans-28" d="M 628 4666
L 3578 4666
L 3578 4134
L 1259 4134
L 1259 2753
L 3481 2753
L 3481 2222
L 1259 2222
L 1259 531
L 3634 531
L 3634 0
L 628 0
L 628 4666
z
" transform="scale(0.015625)"/>
      <path id="DejaVuSans-5b" d="M 3513 3500
L 2247 1797
L 3578 0
L 2900 0
L 1881 1375
L 863 0
L 184 0
L 1544 1831
L 300 3500
L 978 3500
L 1906 2253
L 2834 3500
L 3513 3500
z
" transform="scale(0.015625)"/>
      <path id="DejaVuSans-4f" d="M 603 4863
L 1178 4863
L 1178 0
L 603 0
L 603 4863
z
" transform="scale(0.015625)"/>
      <path id="DejaVuSans-5c" d="M 2059 -325
Q 1816 -950 1584 -1140
Q 1353 -1331 966 -1331
L 506 -1331
L 506 -850
L 844 -850
Q 1081 -850 1212 -737
Q 1344 -625 1503 -206
L 1606 56
L 191 3500
L 800 3500
L 1894 763
L 2988 3500
L 3597 3500
L 2059 -325
z
" transform="scale(0.015625)"/>
      <path id="DejaVuSans-2a" d="M 3809 666
L 3809 1919
L 2778 1919
L 2778 2438
L 4434 2438
L 4434 434
Q 4069 175 3628 42
Q 3188 -91 2688 -91
Q 1594 -91 976 548
Q 359 1188 359 2328
Q 359 3472 976 4111
Q 1594 4750 2688 4750
Q 3144 4750 3555 4637
Q 3966 4525 4313 4306
L 4313 3634
Q 3963 3931 3569 4081
Q 3175 4231 2741 4231
Q 1884 4231 1454 3753
Q 1025 3275 1025 2328
Q 1025 1384 1454 906
Q 1884 428 2741 428
Q 3075 428 3337 486
Q 3600 544 3809 666
z
" transform="scale(0.015625)"/>
      <path id="DejaVuSans-49" d="M 2375 4863
L 2375 4384
L 1825 4384
Q 1516 4384 1395 4259
Q 1275 4134 1275 3809
L 1275 3500
L 2222 3500
L 2222 3053
L 1275 3053
L 1275 0
L 697 0
L 697 3053
L 147 3053
L 147 3500
L 697 3500
L 697 3744
Q 697 4328 969 4595
Q 1241 4863 1831 4863
L 2375 4863
z
" transform="scale(0.015625)"/>
      <path id="DejaVuSans-46" d="M 3122 3366
L 3122 2828
Q 2878 2963 2633 3030
Q 2388 3097 2138 3097
Q 1578 3097 1268 2742
Q 959 2388 959 1747
Q 959 1106 1268 751
Q 1578 397 2138 397
Q 2388 397 2633 464
Q 2878 531 3122 666
L 3122 134
Q 2881 22 2623 -34
Q 2366 -91 2075 -91
Q 1284 -91 818 406
Q 353 903 353 1747
Q 353 2603 823 3093
Q 1294 3584 2113 3584
Q 2378 3584 2631 3529
Q 2884 3475 3122 3366
z
" transform="scale(0.015625)"/>
      <path id="DejaVuSans-59" d="M 191 3500
L 800 3500
L 1894 563
L 2988 3500
L 3597 3500
L 2284 0
L 1503 0
L 191 3500
z
" transform="scale(0.015625)"/>
     </defs>
     <use xlink:href="#DejaVuSans-28"/>
     <use xlink:href="#DejaVuSans-5b" transform="translate(63.1875 0)"/>
     <use xlink:href="#DejaVuSans-53" transform="translate(122.375 0)"/>
     <use xlink:href="#DejaVuSans-4f" transform="translate(185.859375 0)"/>
     <use xlink:href="#DejaVuSans-52" transform="translate(213.640625 0)"/>
     <use xlink:href="#DejaVuSans-55" transform="translate(274.828125 0)"/>
     <use xlink:href="#DejaVuSans-44" transform="translate(315.9375 0)"/>
     <use xlink:href="#DejaVuSans-57" transform="translate(377.21875 0)"/>
     <use xlink:href="#DejaVuSans-52" transform="translate(416.421875 0)"/>
     <use xlink:href="#DejaVuSans-55" transform="translate(477.609375 0)"/>
     <use xlink:href="#DejaVuSans-5c" transform="translate(518.71875 0)"/>
     <use xlink:href="#DejaVuSans-3" transform="translate(577.90625 0)"/>
     <use xlink:href="#DejaVuSans-26" transform="translate(609.6875 0)"/>
     <use xlink:href="#DejaVuSans-52" transform="translate(679.515625 0)"/>
     <use xlink:href="#DejaVuSans-56" transform="translate(740.703125 0)"/>
     <use xlink:href="#DejaVuSans-57" transform="translate(792.796875 0)"/>
     <use xlink:href="#DejaVuSans-44" transform="translate(832 0)"/>
     <use xlink:href="#DejaVuSans-3" transform="translate(893.28125 0)"/>
     <use xlink:href="#DejaVuSans-26" transform="translate(925.0625 0)"/>
     <use xlink:href="#DejaVuSans-48" transform="translate(994.890625 0)"/>
     <use xlink:href="#DejaVuSans-51" transform="translate(1056.421875 0)"/>
     <use xlink:href="#DejaVuSans-57" transform="translate(1119.796875 0)"/>
     <use xlink:href="#DejaVuSans-55" transform="translate(1159 0)"/>
     <use xlink:href="#DejaVuSans-44" transform="translate(1200.109375 0)"/>
     <use xlink:href="#DejaVuSans-4f" transform="translate(1261.390625 0)"/>
     <use xlink:href="#DejaVuSans-3" transform="translate(1289.171875 0)"/>
     <use xlink:href="#DejaVuSans-47" transform="translate(1320.953125 0)"/>
     <use xlink:href="#DejaVuSans-48" transform="translate(1384.4375 0)"/>
     <use xlink:href="#DejaVuSans-4f" transform="translate(1445.96875 0)"/>
     <use xlink:href="#DejaVuSans-3" transform="translate(1473.75 0)"/>
     <use xlink:href="#DejaVuSans-2a" transform="translate(1505.53125 0)"/>
     <use xlink:href="#DejaVuSans-52" transform="translate(1583.015625 0)"/>
     <use xlink:href="#DejaVuSans-4f" transform="translate(1644.203125 0)"/>
     <use xlink:href="#DejaVuSans-49" transform="translate(1671.984375 0)"/>
     <use xlink:href="#DejaVuSans-52" transform="translate(1707.1875 0)"/>
     <use xlink:href="#DejaVuSans-3" transform="translate(1768.375 0)"/>
     <use xlink:href="#DejaVuSans-26" transform="translate(1800.15625 0)"/>
     <use xlink:href="#DejaVuSans-16" transform="translate(1869.984375 0)"/>
     <use xlink:href="#DejaVuSans-3" transform="translate(1933.609375 0)"/>
     <use xlink:href="#DejaVuSans-46" transform="translate(1965.390625 0)"/>
     <use xlink:href="#DejaVuSans-58" transform="translate(2020.375 0)"/>
     <use xlink:href="#DejaVuSans-55" transform="translate(2083.75 0)"/>
     <use xlink:href="#DejaVuSans-59" transform="translate(2124.859375 0)"/>
     <use xlink:href="#DejaVuSans-48" transform="translate(2184.046875 0)"/>
    </g>
   </g>
   <g id="legend_1">
    <g id="patch_7">
     <path d="M 51.103906 75.720469
L 191.808594 75.720469
Q 193.808594 75.720469 193.808594 73.720469
L 193.808594 29.318125
Q 193.808594 27.318125 191.808594 27.318125
L 51.103906 27.318125
Q 49.103906 27.318125 49.103906 29.318125
L 49.103906 73.720469
Q 49.103906 75.720469 51.103906 75.720469
z
" style="fill: #ffffff; opacity: 0.8; stroke: #cccccc; stroke-linejoin: miter"/>
    </g>
    <g id="PathCollection_2">
     <defs>
      <path id="md83fed3a6f" d="M 0 3.466946
C 0.919445 3.466946 1.801355 3.101647 2.451501 2.451501
C 3.101647 1.801355 3.466946 0.919445 3.466946 0
C 3.466946 -0.919445 3.101647 -1.801355 2.451501 -2.451501
C 1.801355 -3.101647 0.919445 -3.466946 0 -3.466946
C -0.919445 -3.466946 -1.801355 -3.101647 -2.451501 -2.451501
C -3.101647 -1.801355 -3.466946 -0.919445 -3.466946 0
C -3.466946 0.919445 -3.101647 1.801355 -2.451501 2.451501
C -1.801355 3.101647 -0.919445 3.466946 0 3.466946
z
" style="stroke: #1f77b4; stroke-opacity: 0.65"/>
     </defs>
     <g>
      <use xlink:href="#md83fed3a6f" x="63.103906" y="36.291562" style="fill: #1f77b4; fill-opacity: 0.65; stroke: #1f77b4; stroke-opacity: 0.65"/>
     </g>
    </g>
    <g id="text_16">
     <!-- Occupied cells -->
     <g transform="translate(81.103906 38.916562) scale(0.1 -0.1)">
      <defs>
       <path id="DejaVuSans-32" d="M 2522 4238
Q 1834 4238 1429 3725
Q 1025 3213 1025 2328
Q 1025 1447 1429 934
Q 1834 422 2522 422
Q 3209 422 3611 934
Q 4013 1447 4013 2328
Q 4013 3213 3611 3725
Q 3209 4238 2522 4238
z
M 2522 4750
Q 3503 4750 4090 4092
Q 4678 3434 4678 2328
Q 4678 1225 4090 567
Q 3503 -91 2522 -91
Q 1538 -91 948 565
Q 359 1222 359 2328
Q 359 3434 948 4092
Q 1538 4750 2522 4750
z
" transform="scale(0.015625)"/>
      </defs>
      <use xlink:href="#DejaVuSans-32"/>
      <use xlink:href="#DejaVuSans-46" transform="translate(78.71875 0)"/>
      <use xlink:href="#DejaVuSans-46" transform="translate(133.703125 0)"/>
      <use xlink:href="#DejaVuSans-58" transform="translate(188.6875 0)"/>
      <use xlink:href="#DejaVuSans-53" transform="translate(252.0625 0)"/>
      <use xlink:href="#DejaVuSans-4c" transform="translate(315.546875 0)"/>
      <use xlink:href="#DejaVuSans-48" transform="translate(343.328125 0)"/>
      <use xlink:href="#DejaVuSans-47" transform="translate(404.859375 0)"/>
      <use xlink:href="#DejaVuSans-3" transform="translate(468.34375 0)"/>
      <use xlink:href="#DejaVuSans-46" transform="translate(500.125 0)"/>
      <use xlink:href="#DejaVuSans-48" transform="translate(555.109375 0)"/>
      <use xlink:href="#DejaVuSans-4f" transform="translate(616.640625 0)"/>
      <use xlink:href="#DejaVuSans-4f" transform="translate(644.421875 0)"/>
      <use xlink:href="#DejaVuSans-56" transform="translate(672.203125 0)"/>
     </g>
    </g>
    <g id="line2d_15">
     <path d="M 53.103906 50.417344
L 63.103906 50.417344
L 73.103906 50.417344
" style="fill: none; stroke: #1f77b4; stroke-width: 2; stroke-linecap: square"/>
    </g>
    <g id="text_17">
     <!-- Quadratic binomial fit -->
     <g transform="translate(81.103906 53.917344) scale(0.1 -0.1)">
      <defs>
       <path id="DejaVuSans-34" d="M 2522 4238
Q 1834 4238 1429 3725
Q 1025 3213 1025 2328
Q 1025 1447 1429 934
Q 1834 422 2522 422
Q 3209 422 3611 934
Q 4013 1447 4013 2328
Q 4013 3213 3611 3725
Q 3209 4238 2522 4238
z
M 3406 84
L 4238 -825
L 3475 -825
L 2784 -78
Q 2681 -84 2626 -87
Q 2572 -91 2522 -91
Q 1538 -91 948 567
Q 359 1225 359 2328
Q 359 3434 948 4092
Q 1538 4750 2522 4750
Q 3503 4750 4090 4092
Q 4678 3434 4678 2328
Q 4678 1516 4351 937
Q 4025 359 3406 84
z
" transform="scale(0.015625)"/>
       <path id="DejaVuSans-45" d="M 3116 1747
Q 3116 2381 2855 2742
Q 2594 3103 2138 3103
Q 1681 3103 1420 2742
Q 1159 2381 1159 1747
Q 1159 1113 1420 752
Q 1681 391 2138 391
Q 2594 391 2855 752
Q 3116 1113 3116 1747
z
M 1159 2969
Q 1341 3281 1617 3432
Q 1894 3584 2278 3584
Q 2916 3584 3314 3078
Q 3713 2572 3713 1747
Q 3713 922 3314 415
Q 2916 -91 2278 -91
Q 1894 -91 1617 61
Q 1341 213 1159 525
L 1159 0
L 581 0
L 581 4863
L 1159 4863
L 1159 2969
z
" transform="scale(0.015625)"/>
       <path id="DejaVuSans-50" d="M 3328 2828
Q 3544 3216 3844 3400
Q 4144 3584 4550 3584
Q 5097 3584 5394 3201
Q 5691 2819 5691 2113
L 5691 0
L 5113 0
L 5113 2094
Q 5113 2597 4934 2840
Q 4756 3084 4391 3084
Q 3944 3084 3684 2787
Q 3425 2491 3425 1978
L 3425 0
L 2847 0
L 2847 2094
Q 2847 2600 2669 2842
Q 2491 3084 2119 3084
Q 1678 3084 1418 2786
Q 1159 2488 1159 1978
L 1159 0
L 581 0
L 581 3500
L 1159 3500
L 1159 2956
Q 1356 3278 1631 3431
Q 1906 3584 2284 3584
Q 2666 3584 2933 3390
Q 3200 3197 3328 2828
z
" transform="scale(0.015625)"/>
       <path id="DejaVuSans-13af" d="M 3431 3500
L 3431 0
L 2853 0
L 2853 3053
L 1275 3053
L 1275 0
L 697 0
L 697 3053
L 147 3053
L 147 3500
L 697 3500
L 697 3744
Q 697 4316 967 4589
Q 1238 4863 1797 4863
L 2375 4863
L 2375 4384
L 1825 4384
Q 1516 4384 1395 4259
Q 1275 4134 1275 3809
L 1275 3500
L 3431 3500
z
M 2853 4856
L 3431 4856
L 3431 4128
L 2853 4128
L 2853 4856
z
" transform="scale(0.015625)"/>
      </defs>
      <use xlink:href="#DejaVuSans-34"/>
      <use xlink:href="#DejaVuSans-58" transform="translate(78.71875 0)"/>
      <use xlink:href="#DejaVuSans-44" transform="translate(142.09375 0)"/>
      <use xlink:href="#DejaVuSans-47" transform="translate(203.375 0)"/>
      <use xlink:href="#DejaVuSans-55" transform="translate(266.859375 0)"/>
      <use xlink:href="#DejaVuSans-44" transform="translate(307.96875 0)"/>
      <use xlink:href="#DejaVuSans-57" transform="translate(369.25 0)"/>
      <use xlink:href="#DejaVuSans-4c" transform="translate(408.453125 0)"/>
      <use xlink:href="#DejaVuSans-46" transform="translate(436.234375 0)"/>
      <use xlink:href="#DejaVuSans-3" transform="translate(491.21875 0)"/>
      <use xlink:href="#DejaVuSans-45" transform="translate(523 0)"/>
      <use xlink:href="#DejaVuSans-4c" transform="translate(586.484375 0)"/>
      <use xlink:href="#DejaVuSans-51" transform="translate(614.265625 0)"/>
      <use xlink:href="#DejaVuSans-52" transform="translate(677.640625 0)"/>
      <use xlink:href="#DejaVuSans-50" transform="translate(738.828125 0)"/>
      <use xlink:href="#DejaVuSans-4c" transform="translate(836.234375 0)"/>
      <use xlink:href="#DejaVuSans-44" transform="translate(864.015625 0)"/>
      <use xlink:href="#DejaVuSans-4f" transform="translate(925.296875 0)"/>
      <use xlink:href="#DejaVuSans-3" transform="translate(953.078125 0)"/>
      <use xlink:href="#DejaVuSans-13af" transform="translate(984.859375 0)"/>
      <use xlink:href="#DejaVuSans-57" transform="translate(1047.84375 0)"/>
     </g>
    </g>
    <g id="line2d_16">
     <path d="M 53.103906 65.818125
L 63.103906 65.818125
L 73.103906 65.818125
" style="fill: none; stroke-dasharray: 5.55,2.4; stroke-dashoffset: 0; stroke: #1f77b4; stroke-width: 1.5"/>
    </g>
    <g id="text_18">
     <!-- Mulegé latitude -->
     <g transform="translate(81.103906 69.318125) scale(0.1 -0.1)">
      <defs>
       <path id="DejaVuSans-30" d="M 628 4666
L 1569 4666
L 2759 1491
L 3956 4666
L 4897 4666
L 4897 0
L 4281 0
L 4281 4097
L 3078 897
L 2444 897
L 1241 4097
L 1241 0
L 628 0
L 628 4666
z
" transform="scale(0.015625)"/>
       <path id="DejaVuSans-4a" d="M 2906 1791
Q 2906 2416 2648 2759
Q 2391 3103 1925 3103
Q 1463 3103 1205 2759
Q 947 2416 947 1791
Q 947 1169 1205 825
Q 1463 481 1925 481
Q 2391 481 2648 825
Q 2906 1169 2906 1791
z
M 3481 434
Q 3481 -459 3084 -895
Q 2688 -1331 1869 -1331
Q 1566 -1331 1297 -1286
Q 1028 -1241 775 -1147
L 775 -588
Q 1028 -725 1275 -790
Q 1522 -856 1778 -856
Q 2344 -856 2625 -561
Q 2906 -266 2906 331
L 2906 616
Q 2728 306 2450 153
Q 2172 0 1784 0
Q 1141 0 747 490
Q 353 981 353 1791
Q 353 2603 747 3093
Q 1141 3584 1784 3584
Q 2172 3584 2450 3431
Q 2728 3278 2906 2969
L 2906 3500
L 3481 3500
L 3481 434
z
" transform="scale(0.015625)"/>
       <path id="DejaVuSans-ab" d="M 3597 1894
L 3597 1613
L 953 1613
Q 991 1019 1311 708
Q 1631 397 2203 397
Q 2534 397 2845 478
Q 3156 559 3463 722
L 3463 178
Q 3153 47 2828 -22
Q 2503 -91 2169 -91
Q 1331 -91 842 396
Q 353 884 353 1716
Q 353 2575 817 3079
Q 1281 3584 2069 3584
Q 2775 3584 3186 3129
Q 3597 2675 3597 1894
z
M 3022 2063
Q 3016 2534 2758 2815
Q 2500 3097 2075 3097
Q 1594 3097 1305 2825
Q 1016 2553 972 2059
L 3022 2063
z
M 2468 5119
L 3090 5119
L 2072 3944
L 1593 3944
L 2468 5119
z
" transform="scale(0.015625)"/>
      </defs>
      <use xlink:href="#DejaVuSans-30"/>
      <use xlink:href="#DejaVuSans-58" transform="translate(86.28125 0)"/>
      <use xlink:href="#DejaVuSans-4f" transform="translate(149.65625 0)"/>
      <use xlink:href="#DejaVuSans-48" transform="translate(177.4375 0)"/>
      <use xlink:href="#DejaVuSans-4a" transform="translate(238.96875 0)"/>
      <use xlink:href="#DejaVuSans-ab" transform="translate(302.453125 0)"/>
      <use xlink:href="#DejaVuSans-3" transform="translate(363.984375 0)"/>
      <use xlink:href="#DejaVuSans-4f" transform="translate(395.765625 0)"/>
      <use xlink:href="#DejaVuSans-44" transform="translate(423.546875 0)"/>
      <use xlink:href="#DejaVuSans-57" transform="translate(484.828125 0)"/>
      <use xlink:href="#DejaVuSans-4c" transform="translate(524.03125 0)"/>
      <use xlink:href="#DejaVuSans-57" transform="translate(551.8125 0)"/>
      <use xlink:href="#DejaVuSans-58" transform="translate(591.015625 0)"/>
      <use xlink:href="#DejaVuSans-47" transform="translate(654.390625 0)"/>
      <use xlink:href="#DejaVuSans-48" transform="translate(717.875 0)"/>
     </g>
    </g>
   </g>
  </g>
 </g>
 <defs>
  <clipPath id="p4dcdfb41a2">
   <rect x="44.103906" y="22.318125" width="589.2" height="364.282813"/>
  </clipPath>
 </defs>
</svg>
